<?xml version="1.0" encoding="UTF-8"?>
<svg width="42px" height="42px" viewBox="0 0 42 42" version="1.1" xmlns="http://www.w3.org/2000/svg" xmlns:xlink="http://www.w3.org/1999/xlink">
    <!-- Generator: Sketch 45.1 (43504) - http://www.bohemiancoding.com/sketch -->
    <title>chat-2</title>
    <desc>Created with Sketch.</desc>
    <defs></defs>
    <g id="LANDING-PAGE" stroke="none" stroke-width="1" fill="none" fill-rule="evenodd">
        <g id="home-page" transform="translate(-170.000000, -2185.000000)">
            <g id="our-product" transform="translate(0.000000, 1435.000000)">
                <g id="3" transform="translate(170.000000, 714.000000)">
                    <g id="chat-2" transform="translate(0.000000, 36.000000)">
                        <rect id="Rectangle-11" stroke="#A1A1A1" x="0.5" y="0.5" width="41" height="41" rx="20.5"></rect>
                        <path d="M29.8264,13.1910714 L17.3076667,13.1660714 C16.1086667,13.1660714 15.1333333,14.1160714 15.1333333,15.2839286 L15.1333333,17.1139286 L12.1743333,17.12 C10.9753333,17.12 10,18.07 10,19.2378571 L10,26.7882143 C10,27.9560714 10.9753333,28.9057143 12.1739667,28.9057143 L14.4,28.9057143 L14.4,32.4771429 C14.4,32.6246429 14.4931333,32.7571429 14.6343,32.8103571 C14.6775667,32.8264286 14.7223,32.8342857 14.7666667,32.8342857 C14.8678667,32.8342857 14.9672333,32.7932143 15.038,32.7175 L18.5961333,28.905 L24.6923333,28.8807143 C25.8913333,28.8807143 26.8666667,27.9307143 26.8666667,26.7632143 L26.8666667,26.7225 L28.7953333,28.7889286 C28.8661,28.8646429 28.9651,28.9057143 29.0666667,28.9057143 C29.1110333,28.9057143 29.1557667,28.8978571 29.1990333,28.8817857 C29.3402,28.8282143 29.4333333,28.6957143 29.4333333,28.5482143 L29.4333333,24.9767857 L29.8256667,24.9767857 C31.0246667,24.9767857 32,24.0267857 32,22.8592857 L32,15.3089286 C32,14.1414286 31.0250333,13.1914286 29.8264,13.1910714 Z M26.1333333,26.7628571 C26.1333333,27.5367857 25.4869,28.1660714 24.6908667,28.1660714 L18.4318667,28.1910714 C18.3288333,28.1914286 18.2313,28.2339286 18.162,28.3078571 L15.1333333,31.5532143 L15.1333333,28.5482143 C15.1333333,28.3510714 14.9690667,28.1910714 14.7666667,28.1910714 L12.1739667,28.1910714 C11.3797667,28.1910714 10.7333333,27.5614286 10.7333333,26.7878571 L10.7333333,19.2375 C10.7333333,18.4635714 11.3797667,17.8339286 12.1750667,17.8339286 L15.5,17.8271429 C15.5,17.8271429 15.5,17.8271429 15.5,17.8271429 C15.5,17.8271429 15.5007333,17.8271429 15.5007333,17.8271429 L24.6197333,17.8089286 L24.6923333,17.8089286 C25.1888,17.8089286 25.6277,18.055 25.8869333,18.4282143 C26.0424,18.6521429 26.1333333,18.9221429 26.1333333,19.2125 L26.1333333,25.7985714 L26.1333333,26.7628571 Z M31.2666667,22.8592857 C31.2666667,23.6332143 30.6202333,24.2625 29.8256667,24.2625 L29.0666667,24.2625 C28.8642667,24.2625 28.7,24.4225 28.7,24.6196429 L28.7,27.6246429 L26.8666667,25.6603571 L26.8666667,19.2125 C26.8666667,19.0664286 26.8512667,18.9239286 26.8223,18.7864286 C26.8076333,18.7175 26.7896667,18.65 26.7687667,18.5835714 C26.4930333,17.7221429 25.6665667,17.095 24.6919667,17.095 L24.6919667,17.095 L24.6919667,17.095 L24.6538333,17.095 L15.8666667,17.1121429 L15.8666667,15.2835714 C15.8666667,14.5096429 16.5131,13.88 17.3069333,13.88 L29.8253,13.905 C29.8253,13.905 29.8256667,13.905 29.8256667,13.905 C30.6202333,13.905 31.2666667,14.5346429 31.2666667,15.3085714 L31.2666667,22.8592857 Z" id="Shape" fill="#A1A1A1" fill-rule="nonzero"></path>
                    </g>
                </g>
            </g>
        </g>
    </g>
</svg>