<?xml version="1.0" encoding="UTF-8"?>
<svg width="42px" height="42px" viewBox="0 0 42 42" version="1.1" xmlns="http://www.w3.org/2000/svg" xmlns:xlink="http://www.w3.org/1999/xlink">
    <!-- Generator: Sketch 45.1 (43504) - http://www.bohemiancoding.com/sketch -->
    <title>ghost</title>
    <desc>Created with Sketch.</desc>
    <defs></defs>
    <g id="LANDING-PAGE" stroke="none" stroke-width="1" fill="none" fill-rule="evenodd">
        <g id="home-page" transform="translate(-170.000000, -2009.000000)">
            <g id="our-product" transform="translate(0.000000, 1435.000000)">
                <g id="2" transform="translate(170.000000, 538.000000)">
                    <g id="ghost" transform="translate(0.000000, 36.000000)">
                        <rect id="Rectangle-11" stroke="#A1A1A1" x="0.5" y="0.5" width="41" height="41" rx="20.5"></rect>
                        <path d="M21,10 C16.6069474,10 13.0329684,13.6473164 13.0329684,18.130418 L13.0329684,31.5217578 C13.0329684,31.7858437 13.2428211,32 13.5016,32 C13.7603789,32 13.9702316,31.7858437 13.9702316,31.5217578 C13.9702316,30.7306172 14.6009263,30.0869883 15.3761684,30.0869883 C16.1514105,30.0869883 16.7821053,30.7306172 16.7821053,31.5217578 C16.7821053,31.7858437 16.9919579,32 17.2507368,32 C17.5095158,32 17.7193684,31.7858437 17.7193684,31.5217578 C17.7193684,30.7306172 18.3500632,30.0869883 19.1253053,30.0869883 C19.9005474,30.0869883 20.5312421,30.7306172 20.5312421,31.5217578 C20.5312421,31.7858437 20.7410947,32 20.9998737,32 C21.2586526,32 21.4685053,31.7858437 21.4685053,31.5217578 C21.4685053,30.7306172 22.0992,30.0869883 22.8744421,30.0869883 C23.6496842,30.0869883 24.2803789,30.7306172 24.2803789,31.5217578 C24.2803789,31.7858437 24.4902316,32 24.7490105,32 C25.0077895,32 25.2176421,31.7858437 25.2176421,31.5217578 C25.2176421,30.7306172 25.8483368,30.0869883 26.6235789,30.0869883 C27.3988211,30.0869883 28.0295158,30.7306172 28.0295158,31.5217578 C28.0295158,31.7858437 28.2393684,32 28.4981474,32 C28.7569263,32 28.9667789,31.7858437 28.9667789,31.5217578 L28.9667789,18.130418 C28.9670316,13.6473164 25.3930105,10 21,10 Z M28.0297684,29.6097773 C27.6378947,29.3089531 27.1508632,29.130418 26.6238316,29.130418 C25.8581474,29.130418 25.1770947,29.507082 24.7492211,30.0884062 C24.3213474,29.507082 23.6402947,29.130418 22.8746105,29.130418 C22.1089263,29.130418 21.4278737,29.507082 21,30.0884062 C20.5721263,29.507082 19.8910737,29.130418 19.1253895,29.130418 C18.3597053,29.130418 17.6786526,29.507082 17.2507789,30.0884062 C16.8229053,29.507082 16.1418526,29.130418 15.3761684,29.130418 C14.8491368,29.130418 14.3621053,29.3089531 13.9702316,29.6097773 L13.9702316,18.130418 C13.9702316,14.1747148 17.1237895,10.9564844 20.9999579,10.9564844 C24.8761263,10.9564844 28.0297263,14.1747148 28.0297263,18.130418 L28.0297263,29.6097773 L28.0297684,29.6097773 Z" id="Shape" fill="#A1A1A1" fill-rule="nonzero"></path>
                        <path d="M21,19.0869453 C21.3050526,19.0869453 21.6270737,19.471 21.8013474,20.0425703 C21.8783579,20.2948398 22.1412632,20.4356484 22.3880842,20.3571875 C22.6352,20.2786406 22.7732632,20.0106445 22.6963789,19.758418 C22.3901474,18.7542383 21.7401263,18.1304609 21,18.1304609 C19.9488,18.1304609 19.1253895,19.3909062 19.1253895,21.000043 C19.1253895,22.6091797 19.9488,23.869625 21,23.869625 C21.5287579,23.869625 22.0134737,23.5568555 22.3647579,22.9888516 C22.5029053,22.765457 22.4374737,22.4700898 22.2186105,22.3291523 C21.9996632,22.1881719 21.7102316,22.2549883 21.5721684,22.4782539 C21.4012632,22.7546289 21.1927158,22.9130977 21,22.9130977 C20.5575579,22.9130977 20.0626947,22.0949727 20.0626947,21.000043 C20.0626947,19.9051133 20.5575579,19.0869453 21,19.0869453 Z" id="Shape" fill="#A1A1A1" fill-rule="nonzero"></path>
                        <path d="M22.4271158,20.8090469 C22.1688421,20.7912148 21.9455579,20.9909336 21.9283368,21.2544609 L21.9275789,21.2642148 C21.9077053,21.5275273 22.1008421,21.7574531 22.3589053,21.7777344 C22.3711158,21.7786797 22.3832842,21.7791523 22.3953263,21.7791523 C22.6378526,21.7791523 22.8432,21.5884141 22.8621053,21.3375195 L22.8634526,21.3180547 C22.8808421,21.0544844 22.6853895,20.8265781 22.4271158,20.8090469 Z" id="Shape" fill="#A1A1A1" fill-rule="nonzero"></path>
                        <path d="M23.8119158,14.7825938 C23.0366737,14.7825938 22.4059789,15.4262227 22.4059789,16.2173633 C22.4059789,17.0085039 23.0366737,17.6521328 23.8119158,17.6521328 C24.5871579,17.6521328 25.2178526,17.0085039 25.2178526,16.2173633 C25.2178526,15.4262656 24.5871579,14.7825938 23.8119158,14.7825938 Z M23.8119158,16.6956484 C23.5535158,16.6956484 23.3432842,16.4811055 23.3432842,16.2174063 C23.3432842,15.953707 23.5535158,15.7391641 23.8119158,15.7391641 C24.0703158,15.7391641 24.2805474,15.953707 24.2805474,16.2174063 C24.2805474,16.4811055 24.0703158,16.6956484 23.8119158,16.6956484 Z" id="Shape" fill="#A1A1A1" fill-rule="nonzero"></path>
                        <path d="M18.1880842,14.7825938 C17.4128421,14.7825938 16.7821474,15.4262227 16.7821474,16.2173633 C16.7821474,17.0085039 17.4128421,17.6521328 18.1880842,17.6521328 C18.9633263,17.6521328 19.5940211,17.0085039 19.5940211,16.2173633 C19.5940632,15.4262656 18.9633263,14.7825938 18.1880842,14.7825938 Z M18.1880842,16.6956484 C17.9296842,16.6956484 17.7194526,16.4811055 17.7194526,16.2174063 C17.7194526,15.953707 17.9296842,15.7391641 18.1880842,15.7391641 C18.4464842,15.7391641 18.6567158,15.953707 18.6567158,16.2174063 C18.6567158,16.4811055 18.4465263,16.6956484 18.1880842,16.6956484 Z" id="Shape" fill="#A1A1A1" fill-rule="nonzero"></path>
                    </g>
                </g>
            </g>
        </g>
    </g>
</svg>