<?xml version="1.0" encoding="UTF-8"?>
<svg width="42px" height="42px" viewBox="0 0 42 42" version="1.1" xmlns="http://www.w3.org/2000/svg" xmlns:xlink="http://www.w3.org/1999/xlink">
    <!-- Generator: Sketch 45.1 (43504) - http://www.bohemiancoding.com/sketch -->
    <title>it risk management</title>
    <desc>Created with Sketch.</desc>
    <defs></defs>
    <g id="LANDING-PAGE" stroke="none" stroke-width="1" fill="none" fill-rule="evenodd">
        <g id="home-page" transform="translate(-170.000000, -2362.000000)">
            <g id="our-product" transform="translate(0.000000, 1435.000000)">
                <g id="4" transform="translate(170.000000, 891.000000)">
                    <g id="it-risk-management" transform="translate(0.000000, 36.000000)">
                        <rect id="Rectangle-11" stroke="#A1A1A1" x="0.5" y="0.5" width="41" height="41" rx="20.5"></rect>
                        <path d="M29.4375,24.25 L23.8125,24.25 C23.502,24.25 23.25,24.502 23.25,24.8125 C23.25,25.123 23.502,25.375 23.8125,25.375 L28.1072059,25.375 C26.8421176,28.0327941 24.1398824,29.875 21,29.875 C17.0337941,29.875 13.7617353,26.9398824 13.2144412,23.125 L12.0776176,23.125 C12.6322647,27.5631176 16.4111176,31 21,31 C24.3907353,31 27.3405,29.1235 28.875,26.3537353 L28.875,30.4375 C28.875,30.748 29.127,31 29.4375,31 C29.748,31 30,30.748 30,30.4375 L30,24.8125 C30,24.2151176 29.4375,24.25 29.4375,24.25 Z M12.5625,19.75 L18.1875,19.75 C18.498,19.75 18.75,19.498 18.75,19.1875 C18.75,18.877 18.498,18.625 18.1875,18.625 L13.8894412,18.625 C15.1533824,15.9655 17.8595588,14.125 21,14.125 C24.9662059,14.125 28.2382647,17.0601176 28.7855588,20.875 L29.9223529,20.875 C29.3677647,16.4362941 25.5888529,13 21,13 C17.6092353,13 14.6595,14.8765 13.125,17.6462647 L13.125,13.5625 C13.125,13.252 12.873,13 12.5625,13 C12.252,13 12,13.252 12,13.5625 L12,19.1875 C12,19.7325588 12.5625,19.75 12.5625,19.75 Z" id="Shape" fill="#A1A1A1" fill-rule="nonzero"></path>
                    </g>
                </g>
            </g>
        </g>
    </g>
</svg>