<?xml version="1.0" encoding="UTF-8"?>
<svg width="29px" height="24px" viewBox="0 0 29 24" version="1.1" xmlns="http://www.w3.org/2000/svg" xmlns:xlink="http://www.w3.org/1999/xlink">
    <!-- Generator: Sketch 45.1 (43504) - http://www.bohemiancoding.com/sketch -->
    <title>left-quotation-sign</title>
    <desc>Created with Sketch.</desc>
    <defs></defs>
    <g id="LANDING-PAGE" stroke="none" stroke-width="1" fill="none" fill-rule="evenodd" opacity="0.800000012">
        <g id="career" transform="translate(-170.000000, -385.000000)" fill-rule="nonzero" fill="#578E40">
            <g id="quote" transform="translate(0.000000, 298.000000)">
                <g id="Group">
                    <g id="left-quotation-sign" transform="translate(184.500000, 99.000000) scale(-1, 1) translate(-184.500000, -99.000000) translate(170.000000, 87.000000)">
                        <path d="M28.3438384,9.66014815 C26.8062525,4.09807407 23.0131111,0.0604444444 19.3260101,0.0604444444 C19.0298586,0.0604444444 18.734,0.0865185185 18.4457576,0.138074074 C18.282303,0.167111111 18.1393535,0.264296296 18.0508889,0.405333333 C17.9627172,0.547259259 17.9378182,0.719703704 17.9826364,0.880888889 L18.7416162,3.62696296 C18.8148485,3.89214815 19.0676465,4.07140741 19.330404,4.05925926 L19.3907475,4.05807407 C20.7581414,4.05807407 23.2571212,6.13096296 24.5310707,10.7380741 C24.5814545,10.9208889 24.629202,11.1078519 24.6751919,11.3028148 C23.2451111,10.586963 21.5390909,10.4213333 19.9941818,10.8565926 C16.5089091,11.842963 14.4671919,15.5128889 15.4414747,19.0376296 C16.2312121,21.8936296 18.8286162,23.8888889 21.7579091,23.8888889 C22.3546061,23.8888889 22.9504242,23.8056296 23.5289596,23.6417778 C25.8272828,22.992 27.5552727,21.0619259 28.3948081,18.2082963 C29.1526162,15.6337778 29.1335758,12.5182222 28.3438384,9.66014815 Z" id="Shape" opacity="0.284759964"></path>
                        <path d="M4.12678788,0.061037037 C3.83122222,0.061037037 3.53507071,0.0865185185 3.24712121,0.138074074 C3.0839596,0.166518519 2.94071717,0.264296296 2.85254545,0.405333333 C2.76437374,0.547259259 2.73947475,0.719703704 2.784,0.880888889 L3.54327273,3.62696296 C3.61650505,3.89214815 3.86461616,4.07140741 4.13206061,4.05925926 L4.19181818,4.05807407 C5.55921212,4.05807407 8.05848485,6.13096296 9.33243434,10.7380741 C9.38311111,10.9220741 9.43085859,11.109037 9.47655556,11.3028148 C8.04588889,10.586963 6.34045455,10.4213333 4.79554545,10.8565926 C1.31085859,11.842963 -0.731444444,15.5128889 0.243424242,19.0376296 C1.03316162,21.8936296 3.63056566,23.8888889 6.55985859,23.8888889 C7.15655556,23.8888889 7.75237374,23.8056296 8.33120202,23.6417778 C10.6292323,22.992 12.3572222,21.0619259 13.1970505,18.2082963 C13.9545657,15.6337778 13.9358182,12.5179259 13.1457879,9.65955556 C11.6073232,4.09807407 7.81476768,0.061037037 4.12678788,0.061037037 Z" id="Shape" opacity="0.284759964"></path>
                    </g>
                </g>
            </g>
        </g>
    </g>
</svg>