<?xml version="1.0" encoding="UTF-8"?>
<svg width="32px" height="28px" viewBox="0 0 32 28" version="1.1" xmlns="http://www.w3.org/2000/svg" xmlns:xlink="http://www.w3.org/1999/xlink">
    <!-- Generator: Sketch 45.1 (43504) - http://www.bohemiancoding.com/sketch -->
    <title>mail</title>
    <desc>Created with Sketch.</desc>
    <defs></defs>
    <g id="LANDING-PAGE" stroke="none" stroke-width="1" fill="none" fill-rule="evenodd">
        <g id="contact-us" transform="translate(-733.000000, -1358.000000)" fill-rule="nonzero" fill="#578E40">
            <g id="not-sure-where-a-start" transform="translate(0.000000, 923.000000)">
                <g id="Group-3" transform="translate(733.000000, 266.000000)">
                    <g id="mail" transform="translate(0.000000, 169.000000)">
                        <path d="M31.2884068,14.7985833 L29.7426441,13.1360833 C29.111322,12.4570833 28.0846102,12.45825 27.4532881,13.1360833 L19.1056271,22.1141667 L17.9552542,26.6519167 L17.6737627,26.9546667 C17.463322,27.181 17.4627797,27.5461667 17.6705085,27.77425 L17.6677966,27.7859167 L17.6781017,27.783 C17.783322,27.8944167 17.92,27.951 18.0572203,27.951 C18.1960678,27.951 18.3349153,27.8938333 18.440678,27.7800833 L18.7227119,27.47675 L22.9412881,26.2395 L31.2884068,17.2614167 C31.9197288,16.5824167 31.9197288,15.4775833 31.2884068,14.7985833 Z M20.3579661,22.4175 L25.9134915,16.4424167 L28.2147797,18.9175 L22.6592542,24.8925833 L20.3579661,22.4175 Z M19.8687458,23.541 L21.6151864,25.4193333 L19.2135593,26.1234167 L19.8687458,23.541 Z M30.5214915,16.4365833 L28.9816949,18.0926667 L26.6804068,15.6181667 L28.2202034,13.9620833 C28.4290169,13.7375 28.768,13.7380833 28.9762712,13.9615 L30.5220339,15.624 C30.7297627,15.8474167 30.7297627,16.2125833 30.5214915,16.4365833 Z" id="Shape"></path>
                        <path d="M15.7288136,23.1268333 L2.10386441,23.1268333 C4.57057627,21.0245 10.1315254,16.2545833 12.9887458,13.5584167 L13.7594576,14.2905 C14.3023729,14.812 15.0161356,15.07275 15.7293559,15.07275 C16.4414915,15.07275 17.1541695,14.8125833 17.6954576,14.2928333 L30.3728814,2.25341667 L30.3728814,11.4595833 C30.3728814,11.7821667 30.6158644,12.0429167 30.9152542,12.0429167 C31.2146441,12.0429167 31.4576271,11.7821667 31.4576271,11.4595833 L31.4576271,0.959583333 C31.4576271,0.954916667 31.4554576,0.951416667 31.4549153,0.94675 C31.4538305,0.882 31.4446102,0.816666667 31.4223729,0.753666667 C31.4207458,0.749583333 31.4180339,0.746666667 31.4164068,0.742583333 C31.4104407,0.726833333 31.400678,0.714583333 31.3941695,0.7 C31.3719322,0.65275 31.3453559,0.609 31.3128136,0.5705 C31.2987119,0.554166667 31.2840678,0.540166667 31.268339,0.525583333 C31.2347119,0.4935 31.1978305,0.46725 31.1576949,0.445666667 C31.1397966,0.43575 31.1235254,0.425833333 31.1050847,0.41825 C31.0454237,0.39375 30.9825085,0.376833333 30.9152542,0.376833333 L0.542372881,0.376833333 C0.475118644,0.376833333 0.41220339,0.39375 0.352,0.41825 C0.333016949,0.425833333 0.316745763,0.43575 0.299389831,0.445666667 C0.259254237,0.467833333 0.222372881,0.494083333 0.188745763,0.525583333 C0.173016949,0.54075 0.158372881,0.554166667 0.144271186,0.5705 C0.111728814,0.609 0.0856949153,0.652166667 0.0629152542,0.7 C0.0564067797,0.715166667 0.0466440678,0.727416667 0.0406779661,0.742583333 C0.0390508475,0.746666667 0.0363389831,0.749583333 0.0347118644,0.753666667 C0.0130169492,0.816666667 0.00379661017,0.882 0.00271186441,0.94675 C0.00216949153,0.951416667 0,0.9555 0,0.960166667 L0,23.7101667 C0,23.7119167 0.00108474576,23.7130833 0.00108474576,23.7154167 C0.00162711864,23.7778333 0.0103050847,23.84025 0.0298305085,23.9015 C0.032,23.9085 0.0368813559,23.91375 0.0395932203,23.92075 C0.0471864407,23.9411667 0.0585762712,23.9586667 0.0677966102,23.9779167 C0.0884067797,24.0205 0.112271186,24.0601667 0.141559322,24.0951667 C0.156745763,24.11325 0.171932203,24.129 0.188745763,24.14475 C0.221830508,24.1756667 0.257627119,24.2013333 0.296677966,24.2229167 C0.315118644,24.2334167 0.331932203,24.2445 0.351457627,24.2526667 C0.411661017,24.2765833 0.475118644,24.2935 0.542372881,24.2935 L15.7288136,24.2935 C16.0282034,24.2935 16.2711864,24.03275 16.2711864,23.7101667 C16.2711864,23.3875833 16.0282034,23.1268333 15.7288136,23.1268333 Z M1.08474576,22.5061667 L1.08474576,2.25341667 L12.1692203,12.78025 C9.15579661,15.61175 3.30088136,20.62025 1.08474576,22.5061667 Z M29.4817627,1.5435 L16.9757288,13.4201667 C16.2885424,14.0805 15.1696271,14.0805 14.4797288,13.4178333 L13.4063729,12.39875 C13.4031186,12.3946667 13.4025763,12.39 13.399322,12.3865 C13.3873898,12.3719167 13.3705763,12.3660833 13.3575593,12.35325 L1.97586441,1.5435 L29.4817627,1.5435 Z" id="Shape"></path>
                    </g>
                </g>
            </g>
        </g>
    </g>
</svg>