<?xml version="1.0" encoding="UTF-8"?>
<svg width="32px" height="32px" viewBox="0 0 32 32" version="1.1" xmlns="http://www.w3.org/2000/svg" xmlns:xlink="http://www.w3.org/1999/xlink">
    <!-- Generator: Sketch 45.1 (43504) - http://www.bohemiancoding.com/sketch -->
    <title>phone-call</title>
    <desc>Created with Sketch.</desc>
    <defs></defs>
    <g id="LANDING-PAGE" stroke="none" stroke-width="1" fill="none" fill-rule="evenodd">
        <g id="contact-us" transform="translate(-733.000000, -1189.000000)" fill-rule="nonzero" fill="#578E40">
            <g id="not-sure-where-a-start" transform="translate(0.000000, 923.000000)">
                <g id="Group-3" transform="translate(733.000000, 266.000000)">
                    <g id="phone-call">
                        <path d="M25.27973,19.8147511 C24.6248776,19.1328945 23.8350042,18.7683376 22.9978734,18.7683376 C22.1674937,18.7683376 21.3708692,19.1261435 20.6890127,19.808 L18.5556793,21.9345823 C18.3801519,21.8400675 18.2046245,21.7523038 18.0358481,21.6645401 C17.7928101,21.5430211 17.5632743,21.4282532 17.3674937,21.3067342 C15.3691814,20.0375359 13.5531477,18.3835274 11.8113755,16.243443 C10.9674937,15.1767764 10.4004051,14.2788861 9.98859072,13.3674937 C10.5421772,12.8611646 11.0552574,12.3345823 11.5548354,11.8282532 C11.743865,11.6392236 11.9328945,11.443443 12.1219241,11.2544135 C13.5396456,9.83669198 13.5396456,8.00040506 12.1219241,6.58268354 L10.2788861,4.73964557 C10.0696034,4.53036287 9.85356962,4.31432911 9.65103797,4.09829536 C9.24597468,3.67972996 8.82065823,3.24766245 8.38183966,2.84259916 C7.72698734,2.19449789 6.94386498,1.85019409 6.12023629,1.85019409 C5.29660759,1.85019409 4.49998312,2.19449789 3.82487764,2.84259916 C3.81812658,2.84935021 3.81812658,2.84935021 3.81137553,2.85610127 L1.51601688,5.17171308 C0.651881857,6.0358481 0.159054852,7.08901266 0.0510379747,8.31095359 C-0.110987342,10.2822616 0.469603376,12.1185485 0.915172996,13.3202363 C2.00884388,16.2704473 3.64259916,19.0046245 6.07972996,21.9345823 C9.03669198,25.465384 12.5944979,28.2535696 16.6586329,30.2181266 C18.2113755,30.9539916 20.2839494,31.8248776 22.5995612,31.9734008 C22.7413333,31.9801519 22.8898565,31.986903 23.0248776,31.986903 C24.5843713,31.986903 25.8940759,31.4265654 26.9202363,30.3126414 C26.9269873,30.2991392 26.9404895,30.2923882 26.9472405,30.2788861 C27.2982954,29.8535696 27.7033586,29.4687595 28.1286751,29.0569451 C28.4189705,28.7801519 28.7160169,28.4898565 29.0063122,28.1860591 C29.6746667,27.4907004 30.0257215,26.6805738 30.0257215,25.8501941 C30.0257215,25.0130633 29.6679156,24.2096878 28.9860591,23.5345823 L25.27973,19.8147511 Z M27.6966076,26.9236118 C27.6898565,26.9236118 27.6898565,26.9303629 27.6966076,26.9236118 C27.4333165,27.2071561 27.1632743,27.4636962 26.8729789,27.7472405 C26.4341603,28.1658059 25.9885907,28.6046245 25.5700253,29.0974515 C24.8881688,29.8265654 24.0847932,30.1708692 23.0316287,30.1708692 C22.9303629,30.1708692 22.822346,30.1708692 22.7210802,30.1641181 C20.7160169,30.0358481 18.8527257,29.2527257 17.4552574,28.5843713 C13.6341603,26.7345823 10.2788861,24.1084219 7.49070042,20.7801519 C5.18859072,18.0054684 3.64935021,15.4400675 2.62994093,12.6856371 C2.00209283,11.0046245 1.77255696,9.69491983 1.87382278,8.45947679 C1.94133333,7.66960338 2.2451308,7.01475105 2.80546835,6.4544135 L5.10757806,4.1523038 C5.43837975,3.84175527 5.7894346,3.6729789 6.1337384,3.6729789 C6.55905485,3.6729789 6.90335865,3.92951899 7.11939241,4.14555274 C7.12614346,4.1523038 7.13289451,4.15905485 7.13964557,4.16580591 C7.55145992,4.55061603 7.9430211,4.94892827 8.35483544,5.37424473 C8.56411814,5.59027848 8.7801519,5.80631224 8.99618565,6.02909705 L10.8392236,7.87213502 C11.5548354,8.58774684 11.5548354,9.24935021 10.8392236,9.96496203 C10.643443,10.1607426 10.4544135,10.3565232 10.2586329,10.5455527 C9.6915443,11.1261435 9.15145992,11.6662278 8.56411814,12.1928101 C8.55061603,12.2063122 8.53711392,12.2130633 8.53036287,12.2265654 C7.94977215,12.8071561 8.05778903,13.3742447 8.17930802,13.7590549 C8.18605907,13.779308 8.19281013,13.7995612 8.19956118,13.8198143 C8.67888608,14.9809958 9.35399156,16.0746667 10.3801519,17.3776203 L10.386903,17.3843713 C12.2501941,19.67973 14.2147511,21.4687595 16.3818397,22.8392236 C16.6586329,23.0147511 16.9421772,23.1565232 17.2122194,23.2915443 C17.4552574,23.4130633 17.6847932,23.5278312 17.8805738,23.6493502 C17.9075781,23.6628523 17.9345823,23.6831055 17.9615865,23.6966076 C18.1911224,23.8113755 18.4071561,23.865384 18.6299409,23.865384 C19.1902785,23.865384 19.5413333,23.5143291 19.6561013,23.3995612 L21.964962,21.0907004 C22.1944979,20.8611646 22.5590549,20.5843713 22.9843713,20.5843713 C23.4029367,20.5843713 23.7472405,20.8476624 23.9565232,21.0771983 C23.9632743,21.0839494 23.9632743,21.0839494 23.9700253,21.0907004 L27.6898565,24.8105316 C28.3852152,25.4991392 28.3852152,26.208 27.6966076,26.9236118 Z" id="Shape"></path>
                        <path d="M17.286481,7.60884388 C19.0552574,7.9058903 20.6620084,8.7430211 21.9447089,10.0257215 C23.2274093,11.3084219 24.057789,12.915173 24.3615865,14.6839494 C24.4358481,15.129519 24.8206582,15.4400675 25.2594768,15.4400675 C25.3134852,15.4400675 25.3607426,15.4333165 25.4147511,15.4265654 C25.9143291,15.3455527 26.2451308,14.8729789 26.1641181,14.3734008 C25.7995612,12.2333165 24.786903,10.2822616 23.2409114,8.73627004 C21.6949198,7.19027848 19.743865,6.17762025 17.6037806,5.81306329 C17.1042025,5.73205063 16.6383797,6.06285232 16.550616,6.55567932 C16.4628523,7.04850633 16.786903,7.52783122 17.286481,7.60884388 Z" id="Shape"></path>
                        <path d="M31.9497722,14.1101097 C31.3489283,10.5860591 29.6881688,7.37930802 27.13627,4.82740928 C24.5843713,2.27551055 21.3776203,0.614751055 17.8535696,0.013907173 C17.3607426,-0.0738565401 16.8949198,0.263696203 16.8071561,0.756523207 C16.7261435,1.25610127 17.0569451,1.72192405 17.5565232,1.80968776 C20.7025148,2.3430211 23.5717131,3.83500422 25.8535696,6.1101097 C28.1354262,8.39196624 29.6206582,11.2611646 30.1539916,14.4071561 C30.2282532,14.8527257 30.6130633,15.1632743 31.0518819,15.1632743 C31.1058903,15.1632743 31.1531477,15.1565232 31.2071561,15.1497722 C31.6999831,15.0755105 32.0375359,14.6029367 31.9497722,14.1101097 Z" id="Shape"></path>
                    </g>
                </g>
            </g>
        </g>
    </g>
</svg>