<?xml version="1.0" encoding="UTF-8"?>
<svg width="27px" height="38px" viewBox="0 0 27 38" version="1.1" xmlns="http://www.w3.org/2000/svg" xmlns:xlink="http://www.w3.org/1999/xlink">
    <!-- Generator: Sketch 45.1 (43504) - http://www.bohemiancoding.com/sketch -->
    <title>placeholder-3</title>
    <desc>Created with Sketch.</desc>
    <defs></defs>
    <g id="LANDING-PAGE" stroke="none" stroke-width="1" fill="none" fill-rule="evenodd">
        <g id="contact-us" transform="translate(-735.000000, -1271.000000)" fill-rule="nonzero" fill="#578E40">
            <g id="not-sure-where-a-start" transform="translate(0.000000, 923.000000)">
                <g id="Group-3" transform="translate(733.000000, 266.000000)">
                    <g id="placeholder-3" transform="translate(2.000000, 82.000000)">
                        <path d="M13.5394615,8.29090909 C10.8678462,8.29090909 8.69330769,10.4610545 8.69330769,13.1272727 C8.69330769,15.7934909 10.8678462,17.9636364 13.5394615,17.9636364 C16.2110769,17.9636364 18.3856154,15.7934909 18.3856154,13.1272727 C18.3856154,10.4610545 16.2110769,8.29090909 13.5394615,8.29090909 Z M13.5394615,16.5818182 C11.6307692,16.5818182 10.0779231,15.0321091 10.0779231,13.1272727 C10.0779231,11.2224364 11.6307692,9.67272727 13.5394615,9.67272727 C15.4481538,9.67272727 17.001,11.2224364 17.001,13.1272727 C17.001,15.0321091 15.4481538,16.5818182 13.5394615,16.5818182 Z" id="Shape"></path>
                        <path d="M22.8046154,3.88083636 C20.2970769,1.37836364 16.9629231,0 13.4169231,0 C9.87023077,0 6.53676923,1.37836364 4.02923077,3.88083636 C-0.611307692,8.51130909 -1.188,17.2236727 2.78030769,22.5022182 L13.4169231,37.8321091 L24.0376154,22.5236364 C28.0218462,17.2236727 27.4451538,8.51130909 22.8046154,3.88083636 Z M22.9146923,21.7159636 L13.4169231,35.4042545 L3.90392308,21.6945455 C0.304615385,16.9051636 0.820384615,9.03709091 5.00884615,4.85778182 C7.25469231,2.61647273 10.2406154,1.38181818 13.4169231,1.38181818 C16.5932308,1.38181818 19.5791538,2.61647273 21.8256923,4.85778182 C26.0141538,9.03709091 26.5299231,16.9051636 22.9146923,21.7159636 Z" id="Shape"></path>
                    </g>
                </g>
            </g>
        </g>
    </g>
</svg>