<?xml version="1.0" encoding="UTF-8"?>
<svg width="98px" height="81px" viewBox="0 0 98 81" version="1.1" xmlns="http://www.w3.org/2000/svg" xmlns:xlink="http://www.w3.org/1999/xlink">
    <!-- Generator: Sketch 45.1 (43504) - http://www.bohemiancoding.com/sketch -->
    <title>right-quotation-sign</title>
    <desc>Created with Sketch.</desc>
    <defs></defs>
    <g id="LANDING-PAGE" stroke="none" stroke-width="1" fill="none" fill-rule="evenodd" opacity="0.699999988">
        <g id="career" transform="translate(-1012.000000, -481.000000)" fill-rule="nonzero" fill="#578E40">
            <g id="quote" transform="translate(0.000000, 298.000000)">
                <g id="Group">
                    <g id="right-quotation-sign" transform="translate(1061.000000, 223.500000) scale(1, -1) translate(-1061.000000, -223.500000) translate(1012.000000, 183.000000)">
                        <path d="M95.7826263,32.603 C90.5866465,13.831 77.7684444,0.204 65.3085859,0.204 C64.307798,0.204 63.308,0.292 62.3339394,0.466 C61.7815758,0.564 61.2985051,0.892 60.9995556,1.368 C60.701596,1.847 60.6174545,2.429 60.7689091,2.973 L63.3337374,12.241 C63.5812121,13.136 64.4354949,13.741 65.3234343,13.7 L65.5273535,13.696 C70.148202,13.696 78.5930303,20.692 82.898101,36.241 C83.0683636,36.858 83.2297172,37.489 83.3851313,38.147 C78.5524444,35.731 72.7872727,35.172 67.5665455,36.641 C55.7887273,39.97 48.8891313,52.356 52.1815354,64.252 C54.850303,73.891 63.6277374,80.625 73.5267273,80.625 C75.5431515,80.625 77.5566061,80.344 79.5116566,79.791 C87.278404,77.598 93.1178182,71.084 95.9548687,61.453 C98.5157374,52.764 98.4513939,42.249 95.7826263,32.603 Z" id="Shape" opacity="0.284759964"></path>
                        <path d="M13.945697,0.206 C12.9468889,0.206 11.946101,0.292 10.9730303,0.466 C10.4216566,0.562 9.93759596,0.892 9.63963636,1.368 C9.34167677,1.847 9.25753535,2.429 9.408,2.973 L11.9738182,12.241 C12.2212929,13.136 13.0597374,13.741 13.9635152,13.7 L14.1654545,13.696 C18.786303,13.696 27.2321212,20.692 31.5371919,36.241 C31.7084444,36.862 31.869798,37.493 32.0242222,38.147 C27.1895556,35.731 21.4263636,35.172 16.2056364,36.641 C4.42979798,39.97 -2.47177778,52.356 0.822606061,64.252 C3.49137374,73.891 12.2688081,80.625 22.167798,80.625 C24.1842222,80.625 26.1976768,80.344 28.1537172,79.791 C35.9194747,77.598 41.7588889,71.084 44.5969293,61.453 C47.1568081,52.764 47.0934545,42.248 44.423697,32.601 C39.2247475,13.831 26.4085253,0.206 13.945697,0.206 Z" id="Shape" opacity="0.284759964"></path>
                    </g>
                </g>
            </g>
        </g>
    </g>
</svg>