<?xml version="1.0" encoding="UTF-8"?>
<svg width="42px" height="42px" viewBox="0 0 42 42" version="1.1" xmlns="http://www.w3.org/2000/svg" xmlns:xlink="http://www.w3.org/1999/xlink">
    <!-- Generator: Sketch 45.1 (43504) - http://www.bohemiancoding.com/sketch -->
    <title>settings-11</title>
    <desc>Created with Sketch.</desc>
    <defs></defs>
    <g id="LANDING-PAGE" stroke="none" stroke-width="1" fill="none" fill-rule="evenodd">
        <g id="home-page" transform="translate(-170.000000, -1833.000000)">
            <g id="our-product" transform="translate(0.000000, 1435.000000)">
                <g id="1" transform="translate(170.000000, 362.000000)">
                    <g id="settings-11" transform="translate(0.000000, 36.000000)">
                        <rect id="Rectangle-11" fill="#FFC107" x="0" y="0" width="42" height="42" rx="21"></rect>
                        <path d="M30.8609603,18.6852234 L29.3177453,18.423428 C29.1569937,17.9044301 28.9503132,17.4038038 28.6977035,16.926142 L29.6070981,15.6539081 C29.9929019,15.1119457 29.9331942,14.3724885 29.4601253,13.9040125 L28.0914405,12.5353278 C27.834238,12.2781253 27.4943633,12.1357453 27.131524,12.1357453 C26.8467641,12.1357453 26.5757829,12.2230104 26.3461378,12.3883549 L25.0693111,13.2977495 C24.5732777,13.0359541 24.0542797,12.8200877 23.5169102,12.6593361 L23.2597077,11.1344927 C23.1494781,10.4777077 22.5845511,10.0000459 21.9185804,10.0000459 L19.9849687,10.0000459 C19.3189979,10.0000459 18.754071,10.4777077 18.6438413,11.1344927 L18.377453,12.6960793 C17.863048,12.8568309 17.3624217,13.0681044 16.8847599,13.3253069 L15.6217119,12.4159123 C15.3920668,12.2505678 15.1164927,12.1633027 14.8317328,12.1633027 C14.4688935,12.1633027 14.1244259,12.3056827 13.8718163,12.5628852 L12.4985386,13.9315699 C12.0300626,14.4000459 11.965762,15.1395031 12.3515658,15.6814656 L13.2701461,16.972071 C13.0175365,17.4543257 12.8154489,17.954952 12.6592902,18.4739499 L11.1344468,18.7311524 C10.4776618,18.841382 10,19.406309 10,20.0722797 L10,22.0058914 C10,22.6718622 10.4776618,23.2367891 11.1344468,23.3470188 L12.6960334,23.6134071 C12.856785,24.1278121 13.0680585,24.6284384 13.325261,25.1061002 L12.4204593,26.3645553 C12.0346555,26.9065177 12.0943633,27.6459749 12.5674322,28.1144509 L13.9361169,29.4831357 C14.1933194,29.7403382 14.5331942,29.8827182 14.8960334,29.8827182 C15.1807933,29.8827182 15.4517745,29.795453 15.6814196,29.6301086 L16.9720251,28.7115282 C17.4359081,28.954952 17.9227557,29.1524468 18.423382,29.3086054 L18.6805846,30.8518205 C18.7908142,31.5086054 19.3557411,31.9862672 20.0217119,31.9862672 L21.9599165,31.9862672 C22.6258873,31.9862672 23.1908142,31.5086054 23.3010438,30.8518205 L23.5628392,29.3086054 C24.0818372,29.1478539 24.5824635,28.9411733 25.0601253,28.6885637 L26.3323591,29.5979582 C26.5620042,29.7633027 26.8375783,29.8505678 27.1223382,29.8505678 L27.1223382,29.8505678 C27.4851775,29.8505678 27.8250522,29.7081879 28.0822547,29.4509854 L29.4509395,28.0823006 C29.9194154,27.6138246 29.9837161,26.8743674 29.5979123,26.332405 L28.6885177,25.0555783 C28.9411273,24.5733236 29.1524008,24.0726973 29.3085595,23.5582923 L30.8517745,23.3010898 C31.5085595,23.1908601 31.9862213,22.6259332 31.9862213,21.9599624 L31.9862213,20.0263507 C31.9954071,19.36038 31.5177453,18.795453 30.8609603,18.6852234 Z M30.7553236,21.9599624 C30.7553236,22.0196701 30.7139875,22.0701921 30.6542797,22.0793779 L28.725261,22.400881 C28.4818372,22.4422171 28.2889353,22.6213403 28.2292276,22.8555783 C28.0546973,23.5307349 27.788309,24.178334 27.4300626,24.7800042 C27.3060543,24.9912777 27.3152401,25.2530731 27.45762,25.4551608 L28.5920668,27.0534906 C28.6242171,27.0994196 28.6196242,27.1683132 28.5782881,27.2096493 L27.2096033,28.578334 C27.177453,28.6104843 27.1453027,28.6150772 27.1223382,28.6150772 C27.0947808,28.6150772 27.0718163,28.6058914 27.0534447,28.5921127 L25.4597077,27.457666 C25.2622129,27.315286 24.9958246,27.3061002 24.7845511,27.4301086 C24.182881,27.7883549 23.5352818,28.0547432 22.8601253,28.2292735 C22.6212944,28.2889812 22.4421712,28.486476 22.405428,28.7253069 L22.0793319,30.6543257 C22.0701461,30.7140334 22.0196242,30.7553695 21.9599165,30.7553695 L20.0263048,30.7553695 C19.9665971,30.7553695 19.9160752,30.7140334 19.9068894,30.6543257 L19.5853862,28.7253069 C19.5440501,28.4818831 19.3649269,28.2889812 19.1306889,28.2292735 C18.473904,28.0593361 17.8400835,27.7975407 17.2475992,27.457666 C17.1511482,27.4025511 17.0409186,27.3749937 16.9352818,27.3749937 C16.8112735,27.3749937 16.6826722,27.411737 16.5770355,27.4898163 L14.9695198,28.6334489 C14.9465553,28.6472276 14.9235908,28.6564134 14.9006263,28.6564134 C14.8822547,28.6564134 14.8455115,28.6518205 14.8133612,28.6196701 L13.4446764,27.2509854 C13.4033403,27.2096493 13.3987474,27.1453486 13.4308977,27.0948267 L14.5607516,25.5102756 C14.7031315,25.3081879 14.7123173,25.0417996 14.588309,24.8305261 C14.2300626,24.2334489 13.9544885,23.5858497 13.7799582,22.9106931 C13.7156576,22.6764551 13.5227557,22.4973319 13.2839248,22.4559958 L11.3411273,22.1253069 C11.2814196,22.1161211 11.2400835,22.0655992 11.2400835,22.0058914 L11.2400835,20.0722797 C11.2400835,20.012572 11.2814196,19.9620501 11.3411273,19.9528643 L13.2563674,19.6313612 C13.4997912,19.5900251 13.697286,19.4109019 13.7569937,19.172071 C13.9269311,18.4969144 14.1887265,17.8447223 14.54238,17.2430522 C14.6663883,17.0317787 14.6526096,16.7699833 14.5102296,16.5724885 L13.3665971,14.9649729 C13.3344468,14.9190438 13.3390397,14.8501503 13.3803758,14.8088142 L14.7490605,13.4401294 C14.7812109,13.4079791 14.8133612,13.4033862 14.8363257,13.4033862 C14.8638831,13.4033862 14.8868476,13.412572 14.9052192,13.4263507 L16.4897704,14.5562046 C16.691858,14.6985846 16.9582463,14.7077704 17.1695198,14.583762 C17.7665971,14.2255157 18.4141962,13.9499415 19.0893528,13.7754113 C19.3235908,13.7111106 19.502714,13.5182088 19.5440501,13.2793779 L19.874739,11.3365804 C19.8839248,11.2768727 19.9344468,11.2355365 19.9941545,11.2355365 L21.9277662,11.2355365 C21.9874739,11.2355365 22.0379958,11.2768727 22.0471816,11.3365804 L22.3686848,13.2518205 C22.4100209,13.4952443 22.5891441,13.692739 22.8279749,13.7524468 C23.5215031,13.926977 24.182881,14.1979582 24.7983299,14.5607975 C25.0096033,14.6848058 25.2713987,14.67562 25.4734864,14.5332401 L27.0580376,13.3942004 C27.0810021,13.3804217 27.1039666,13.3712359 27.1269311,13.3712359 C27.1453027,13.3712359 27.1820459,13.3758288 27.2141962,13.4079791 L28.582881,14.7766639 C28.6242171,14.818 28.62881,14.8823006 28.5966597,14.9328225 L27.4622129,16.5265595 C27.319833,16.7240543 27.3106472,16.9904426 27.4346555,17.2017161 C27.7929019,17.8033862 28.0592902,18.4509854 28.2338205,19.126142 C28.2935282,19.3649729 28.491023,19.544096 28.7298539,19.5808392 L30.6588727,19.9069353 C30.7185804,19.9161211 30.7599165,19.966643 30.7599165,20.0263507 L30.7599165,21.9599624 L30.7553236,21.9599624 L30.7553236,21.9599624 Z" id="Shape" fill="#FFFFFF" fill-rule="nonzero"></path>
                        <path d="M20.9954071,16.2463925 C18.377453,16.2463925 16.2509395,18.3729061 16.2509395,20.9908601 C16.2509395,23.6088142 18.377453,25.7353278 20.9954071,25.7353278 C23.6133612,25.7353278 25.7398747,23.6088142 25.7398747,20.9908601 C25.7398747,18.3729061 23.6133612,16.2463925 20.9954071,16.2463925 Z M20.9954071,24.4952443 C19.0617954,24.4952443 17.491023,22.9244718 17.491023,20.9908601 C17.491023,19.0572484 19.0617954,17.486476 20.9954071,17.486476 C22.9290188,17.486476 24.4997912,19.0572484 24.4997912,20.9908601 C24.4997912,22.9244718 22.9290188,24.4952443 20.9954071,24.4952443 Z" id="Shape" fill="#FFFFFF" fill-rule="nonzero"></path>
                    </g>
                </g>
            </g>
        </g>
    </g>
</svg>