<?xml version="1.0" encoding="UTF-8"?>
<svg width="29px" height="22px" viewBox="0 0 29 22" version="1.1" xmlns="http://www.w3.org/2000/svg" xmlns:xlink="http://www.w3.org/1999/xlink">
    <!-- Generator: Sketch 45.1 (43504) - http://www.bohemiancoding.com/sketch -->
    <title>computer</title>
    <desc>Created with Sketch.</desc>
    <defs></defs>
    <g id="LANDING-PAGE" stroke="none" stroke-width="1" fill="none" fill-rule="evenodd">
        <g id="product" transform="translate(-503.000000, -824.000000)" fill-rule="nonzero" fill="#578E40">
            <g id="Group-3" transform="translate(0.000000, 531.000000)">
                <g id="benefits">
                    <g id="2" transform="translate(503.000000, 291.000000)">
                        <g id="computer" transform="translate(0.000000, 2.000000)">
                            <path d="M1.97727273,13.9117647 C1.97727273,14.2695882 2.27254545,14.5588235 2.63636364,14.5588235 L19.1136364,14.5588235 L19.1136364,13.2647059 L2.63636364,13.2647059 C2.27254545,13.2647059 1.97727273,13.5539412 1.97727273,13.9117647 Z M26.3636364,17.1470588 L21.75,17.1470588 C21.3855227,17.1470588 21.0909091,17.4362941 21.0909091,17.7941176 C21.0909091,18.1519412 21.3855227,18.4411765 21.75,18.4411765 L26.3636364,18.4411765 C26.7281136,18.4411765 27.0227273,18.1519412 27.0227273,17.7941176 C27.0227273,17.4362941 26.7281136,17.1470588 26.3636364,17.1470588 Z" id="Shape"></path>
                            <path d="M27.6818182,4.85294118 L23.7272727,4.85294118 L23.7272727,1.61764706 C23.7272727,0.903294118 23.1367273,0.323529412 22.4090909,0.323529412 L1.31818182,0.323529412 C0.590545455,0.323529412 0,0.903294118 0,1.61764706 L0,15.8529412 C0,16.5672941 0.590545455,17.1470588 1.31818182,17.1470588 L7.25,17.1470588 L7.25,20.3823529 L5.93181818,20.3823529 C5.568,20.3823529 5.27272727,20.6715882 5.27272727,21.0294118 C5.27272727,21.3872353 5.568,21.6764706 5.93181818,21.6764706 L17.7954545,21.6764706 C18.1599318,21.6764706 18.4545455,21.3872353 18.4545455,21.0294118 C18.4545455,20.6715882 18.1599318,20.3823529 17.7954545,20.3823529 L16.4772727,20.3823529 L16.4772727,17.1470588 L19.1136364,17.1470588 L19.1136364,19.7352941 C19.1136364,20.4496471 19.7041818,21.0294118 20.4318182,21.0294118 L27.6818182,21.0294118 C28.4094545,21.0294118 29,20.4496471 29,19.7352941 L29,6.14705882 C29,5.43270588 28.4094545,4.85294118 27.6818182,4.85294118 Z M15.1590909,20.3823529 L8.56818182,20.3823529 L8.56818182,17.1470588 L15.1590909,17.1470588 L15.1590909,20.3823529 Z M19.1136364,6.14705882 L19.1136364,15.8529412 L1.31818182,15.8529412 L1.31818182,1.61764706 L22.4090909,1.61764706 L22.4090909,4.85294118 L20.4318182,4.85294118 C19.7041818,4.85294118 19.1136364,5.43270588 19.1136364,6.14705882 Z M27.6818182,19.7352941 L20.4318182,19.7352941 L20.4318182,6.14705882 L27.6818182,6.14705882 L27.6818182,19.7352941 Z" id="Shape"></path>
                        </g>
                    </g>
                </g>
            </g>
        </g>
    </g>
</svg>