<?xml version="1.0" encoding="UTF-8"?>
<svg width="32px" height="39px" viewBox="0 0 32 39" version="1.1" xmlns="http://www.w3.org/2000/svg" xmlns:xlink="http://www.w3.org/1999/xlink">
    <!-- Generator: Sketch 45.1 (43504) - http://www.bohemiancoding.com/sketch -->
    <title>book</title>
    <desc>Created with Sketch.</desc>
    <defs></defs>
    <g id="LANDING-PAGE" stroke="none" stroke-width="1" fill="none" fill-rule="evenodd">
        <g id="product" transform="translate(-688.000000, -3718.000000)" fill-rule="nonzero" fill="#2F90F1">
            <g id="features" transform="translate(0.000000, 3587.000000)">
                <g id="Success-Story" transform="translate(650.000000, 97.500000)">
                    <g id="book" transform="translate(38.000000, 33.000000)">
                        <path d="M27.0538182,8.24633333 L25.9701818,8.24633333 L25.9701818,5.42316667 C25.9701818,3.86677778 25.1963636,2.41366667 23.9003636,1.53761111 C22.6050909,0.661555556 20.96,0.478833333 19.5010909,1.04866667 L0.976,8.29616667 C0.973090909,8.29761111 0.970909091,8.29977778 0.968,8.30122222 C0.943272727,8.31133333 0.925090909,8.32938889 0.901818182,8.34166667 C0.845090909,8.372 0.790545455,8.40377778 0.745454545,8.44638889 C0.722181818,8.46805556 0.706909091,8.49477778 0.686545455,8.51933333 C0.650909091,8.56338889 0.617454545,8.60672222 0.592727273,8.65727778 C0.578181818,8.68761111 0.570181818,8.72011111 0.559272727,8.75261111 C0.541818182,8.80605556 0.530181818,8.8595 0.525818182,8.91655556 C0.524363636,8.93461111 0.515636364,8.94977778 0.515636364,8.96783333 L0.515636364,34.4406111 C0.515636364,36.7228333 2.38545455,38.5789444 4.68363636,38.5789444 L27.0538182,38.5789444 C29.664,38.5789444 31.7883636,36.4700556 31.7883636,33.8772778 L31.7883636,12.9472778 C31.7883636,10.3545 29.664,8.24633333 27.0538182,8.24633333 Z M20.0341818,2.39344444 C21.0596364,1.99188889 22.1701818,2.11538889 23.0814545,2.73144444 C23.9927273,3.34822222 24.5156364,4.329 24.5156364,5.42388889 L24.5156364,8.24633333 L5.07272727,8.24633333 L20.0341818,2.39344444 Z M30.3338182,33.878 C30.3338182,35.6734444 28.8625455,37.1352222 27.0538182,37.1352222 L4.68363636,37.1352222 C3.18763636,37.1352222 1.97018182,35.9262222 1.97018182,34.4413333 L1.97018182,9.69077778 L25.2429091,9.69077778 L27.0538182,9.69077778 C28.8625455,9.69077778 30.3338182,11.1518333 30.3338182,12.948 L30.3338182,33.878 Z" id="Shape"></path>
                        <path d="M26.8290909,19.9535556 L20.1527273,18.9893889 L17.1672727,12.9826667 C16.9214545,12.4886667 16.1083636,12.4886667 15.8625455,12.9826667 L12.8770909,18.9893889 L6.20072727,19.9535556 C5.92727273,19.9932778 5.69963636,20.1832222 5.61381818,20.4453889 C5.528,20.7061111 5.59927273,20.9935556 5.79781818,21.1849444 L10.6283636,25.8613333 L9.488,32.4646111 C9.44145455,32.7354444 9.55345455,33.0091667 9.77745455,33.1709444 C10.0021818,33.3334444 10.2989091,33.3551111 10.5432727,33.2258333 L16.5141818,30.1087222 L22.4850909,33.2258333 C22.5912727,33.2814444 22.7076364,33.3088889 22.8232727,33.3088889 C22.9738182,33.3088889 23.1243636,33.2626667 23.2509091,33.1709444 C23.4749091,33.0091667 23.5869091,32.7354444 23.5403636,32.4646111 L22.4,25.8613333 L27.2305455,21.1849444 C27.4290909,20.9928333 27.5003636,20.7061111 27.4145455,20.4453889 C27.3309091,20.1832222 27.1032727,19.9925556 26.8290909,19.9535556 Z M21.1127273,25.0914444 C20.9410909,25.2568333 20.8632727,25.4966111 20.9032727,25.7306111 L21.8596364,31.2657222 L16.8545455,28.6527222 C16.7483636,28.5971111 16.632,28.5696667 16.5163636,28.5696667 C16.4007273,28.5696667 16.2836364,28.5971111 16.1781818,28.6527222 L11.1730909,31.2657222 L12.1294545,25.7306111 C12.1694545,25.4966111 12.0916364,25.2575556 11.92,25.0914444 L7.87054545,21.1719444 L13.4669091,20.3637778 C13.704,20.3298333 13.9083636,20.1817778 14.0145455,19.9687222 L16.5170909,14.9333889 L19.0196364,19.9687222 C19.1258182,20.1817778 19.3301818,20.3298333 19.5672727,20.3637778 L25.1636364,21.1719444 L21.1127273,25.0914444 Z" id="Shape"></path>
                    </g>
                </g>
            </g>
        </g>
    </g>
</svg>