<?xml version="1.0" encoding="UTF-8"?>
<svg width="34px" height="28px" viewBox="0 0 34 28" version="1.1" xmlns="http://www.w3.org/2000/svg" xmlns:xlink="http://www.w3.org/1999/xlink">
    <!-- Generator: Sketch 45.1 (43504) - http://www.bohemiancoding.com/sketch -->
    <title>video-player-2</title>
    <desc>Created with Sketch.</desc>
    <defs></defs>
    <g id="LANDING-PAGE" stroke="none" stroke-width="1" fill="none" fill-rule="evenodd">
        <g id="product" transform="translate(-208.000000, -3726.000000)" fill-rule="nonzero" fill="#578E40">
            <g id="features" transform="translate(0.000000, 3587.000000)">
                <g id="video" transform="translate(170.000000, 97.500000)">
                    <g id="video-player-2" transform="translate(38.000000, 42.000000)">
                        <path d="M21.4182414,13.0046087 L14.9699655,8.89591304 C14.7894138,8.78145652 14.5607931,8.77382609 14.3726207,8.87654348 C14.1856207,8.97984783 14.0689655,9.17706522 14.0689655,9.39130435 L14.0689655,17.6086957 C14.0689655,17.8229348 14.1856207,18.0201522 14.3732069,18.1234565 C14.4611379,18.171587 14.5578621,18.1956522 14.6551724,18.1956522 C14.7647931,18.1956522 14.8744138,18.1645435 14.9699655,18.104087 L21.4182414,13.9953913 C21.587069,13.8873913 21.6896552,13.7007391 21.6896552,13.5 C21.6896552,13.2992609 21.587069,13.1126087 21.4182414,13.0046087 Z M15.2413793,16.5398478 L15.2413793,10.4601522 L20.0113448,13.5 L15.2413793,16.5398478 Z" id="Shape"></path>
                        <path d="M33.4137931,0 L27.5517241,0 L6.44827586,0 L0.586206897,0 C0.26262069,0 0,0.262369565 0,0.586956522 L0,7.04347826 L0,13.5 L0,19.9565217 L0,26.4130435 C0,26.7376304 0.26262069,27 0.586206897,27 L6.44827586,27 L27.5517241,27 L33.4137931,27 C33.7373793,27 34,26.7376304 34,26.4130435 L34,19.9565217 L34,13.5 L34,7.04347826 L34,0.586956522 C34,0.262369565 33.7373793,0 33.4137931,0 Z M5.86206897,12.9130435 L1.17241379,12.9130435 L1.17241379,7.63043478 L5.86206897,7.63043478 L5.86206897,12.9130435 Z M1.17241379,14.0869565 L5.86206897,14.0869565 L5.86206897,19.3695652 L1.17241379,19.3695652 L1.17241379,14.0869565 Z M7.03448276,19.9565217 L7.03448276,13.5 L7.03448276,7.04347826 L7.03448276,1.17391304 L26.9655172,1.17391304 L26.9655172,7.04347826 L26.9655172,13.5 L26.9655172,19.9565217 L26.9655172,25.826087 L7.03448276,25.826087 L7.03448276,19.9565217 Z M32.8275862,12.9130435 L28.137931,12.9130435 L28.137931,7.63043478 L32.8275862,7.63043478 L32.8275862,12.9130435 Z M28.137931,14.0869565 L32.8275862,14.0869565 L32.8275862,19.3695652 L28.137931,19.3695652 L28.137931,14.0869565 Z M32.8275862,1.17391304 L32.8275862,6.45652174 L28.137931,6.45652174 L28.137931,1.17391304 L32.8275862,1.17391304 Z M1.17241379,1.17391304 L5.86206897,1.17391304 L5.86206897,6.45652174 L1.17241379,6.45652174 L1.17241379,1.17391304 Z M1.17241379,25.826087 L1.17241379,20.5434783 L5.86206897,20.5434783 L5.86206897,25.826087 L1.17241379,25.826087 Z M32.8275862,25.826087 L28.137931,25.826087 L28.137931,20.5434783 L32.8275862,20.5434783 L32.8275862,25.826087 Z" id="Shape"></path>
                    </g>
                </g>
            </g>
        </g>
    </g>
</svg>