<?xml version="1.0" encoding="UTF-8"?>
<svg width="34px" height="35px" viewBox="0 0 34 35" version="1.1" xmlns="http://www.w3.org/2000/svg" xmlns:xlink="http://www.w3.org/1999/xlink">
    <!-- Generator: Sketch 45.1 (43504) - http://www.bohemiancoding.com/sketch -->
    <title>contract</title>
    <desc>Created with Sketch.</desc>
    <defs></defs>
    <g id="LANDING-PAGE" stroke="none" stroke-width="1" fill="none" fill-rule="evenodd">
        <g id="product" transform="translate(-208.000000, -4004.000000)" fill-rule="nonzero" fill="#9B9B9B">
            <g id="features" transform="translate(0.000000, 3587.000000)">
                <g id="White-Paper-/-Solution-Brief" transform="translate(170.000000, 382.500000)">
                    <g id="contract" transform="translate(38.000000, 35.000000)">
                        <path d="M26.06525,8.46672904 L26.06525,8.26253021 L18.3831094,0.00112670565 L18.1718047,0.00112670565 C18.1639687,0.000662768031 18.1561992,0.00125925926 18.1483633,0.00112670565 L0.0025234375,0.00112670565 L0.0025234375,33.9348499 L26.06525,33.9348499 L26.06525,8.49502924 C26.0655156,8.48561793 26.0655156,8.47620663 26.06525,8.46672904 Z M24.1994336,7.91901754 L18.7023906,7.91901754 L18.7023906,2.00752437 L24.1994336,7.91901754 Z M1.13587891,32.80377 L1.13587891,1.1322729 L17.5691016,1.1322729 L17.5691016,8.4845575 C17.5691016,8.79692008 17.8227734,9.05009747 18.1357461,9.05009747 L24.9318945,9.05009747 L24.9318945,32.8037037 L1.13587891,32.8037037 L1.13587891,32.80377 Z" id="Shape"></path>
                        <path d="M22.66525,14.7057622 L14.16525,14.7057622 C13.8522773,14.7057622 13.5986055,14.9589396 13.5986055,15.2713021 C13.5986055,15.5836647 13.8523438,15.8368421 14.16525,15.8368421 L22.66525,15.8368421 C22.9782227,15.8368421 23.2318945,15.5836647 23.2318945,15.2713021 C23.2318945,14.9589396 22.9782227,14.7057622 22.66525,14.7057622 Z" id="Shape"></path>
                        <path d="M14.16525,13.574616 L21.5318945,13.574616 C21.8448672,13.574616 22.0985391,13.3214386 22.0985391,13.009076 C22.0985391,12.6967135 21.8448672,12.4435361 21.5318945,12.4435361 L14.16525,12.4435361 C13.8522773,12.4435361 13.5986055,12.6967135 13.5986055,13.009076 C13.5986055,13.3214386 13.8522773,13.574616 14.16525,13.574616 Z" id="Shape"></path>
                        <path d="M9.40086719,12.5562066 C9.15031641,12.3691072 8.79517578,12.4201404 8.60764453,12.6702027 L7.30349219,14.40977 L6.63265625,13.7402417 C6.41139063,13.5194074 6.05259766,13.5194074 5.83126563,13.7402417 C5.60993359,13.961076 5.61,14.3191696 5.83126563,14.5400702 L6.96462109,15.6712164 C7.20866406,15.9147836 7.61228125,15.8858869 7.81900391,15.6101092 L9.51501953,13.347883 C9.70261719,13.0978207 9.65148438,12.7433723 9.40086719,12.5562066 Z" id="Shape"></path>
                        <path d="M7.36525,9.6157037 C4.86153516,9.6157037 2.83189453,11.6413879 2.83189453,14.1402222 C2.83189453,16.6390565 4.86153516,18.6647407 7.36525,18.6647407 C9.86896484,18.6647407 11.8986055,16.6390565 11.8986055,14.1402222 C11.8986055,11.6413879 9.86896484,9.6157037 7.36525,9.6157037 Z M7.36525,17.5335945 C5.48748047,17.5335945 3.96525,16.0143314 3.96525,14.1402222 C3.96525,12.2661131 5.48748047,10.7468499 7.36525,10.7468499 C9.24301953,10.7468499 10.76525,12.2661131 10.76525,14.1402222 C10.76525,16.0143314 9.24301953,17.5335945 7.36525,17.5335945 Z" id="Shape"></path>
                        <path d="M22.66525,26.5825653 L14.16525,26.5825653 C13.8522773,26.5825653 13.5986055,26.8357427 13.5986055,27.1481053 C13.5986055,27.4604678 13.8523438,27.7136452 14.16525,27.7136452 L22.66525,27.7136452 C22.9782227,27.7136452 23.2318945,27.4604678 23.2318945,27.1481053 C23.2318945,26.8357427 22.9782227,26.5825653 22.66525,26.5825653 Z" id="Shape"></path>
                        <path d="M14.16525,25.4514191 L21.5318945,25.4514191 C21.8448672,25.4514191 22.0985391,25.1982417 22.0985391,24.8858791 C22.0985391,24.5735166 21.8448672,24.3203392 21.5318945,24.3203392 L14.16525,24.3203392 C13.8522773,24.3203392 13.5986055,24.5735166 13.5986055,24.8858791 C13.5986055,25.1982417 13.8522773,25.4514191 14.16525,25.4514191 Z" id="Shape"></path>
                        <path d="M9.40086719,24.4330097 C9.15031641,24.2459103 8.79517578,24.2969435 8.60764453,24.5470058 L7.30349219,26.2865731 L6.63265625,25.6170448 C6.41139063,25.3962105 6.05259766,25.3962105 5.83126563,25.6170448 C5.60993359,25.8378791 5.61,26.1959727 5.83126563,26.4168733 L6.96462109,27.5480195 C7.20866406,27.7915867 7.61228125,27.7626901 7.81900391,27.4869123 L9.51501953,25.2246862 C9.70261719,24.9746238 9.65148438,24.6201754 9.40086719,24.4330097 Z" id="Shape"></path>
                        <path d="M7.36525,21.4925068 C4.86153516,21.4925068 2.83189453,23.518191 2.83189453,26.0170253 C2.83189453,28.5158596 4.86153516,30.5415439 7.36525,30.5415439 C9.86896484,30.5415439 11.8986055,28.5158596 11.8986055,26.0170253 C11.8986055,23.518191 9.86896484,21.4925068 7.36525,21.4925068 Z M7.36525,29.4103977 C5.48748047,29.4103977 3.96525,27.8911345 3.96525,26.0170253 C3.96525,24.1429162 5.48748047,22.623653 7.36525,22.623653 C9.24301953,22.623653 10.76525,24.1429162 10.76525,26.0170253 C10.76525,27.8911345 9.24301953,29.4103977 7.36525,29.4103977 Z" id="Shape"></path>
                        <path d="M32.3071055,0.00112670565 L30.0234609,0.00112670565 C29.089457,0.00112670565 28.3319609,0.757146199 28.3319609,1.68932943 L28.3319609,3.96003899 L28.3319609,7.35341131 L28.3319609,28.4294347 L30.5986055,32.388347 L30.5986055,33.3692437 C30.5986055,33.6816062 30.8522773,33.9347836 31.16525,33.9347836 C31.4782227,33.9347836 31.7318945,33.6816062 31.7318945,33.3692437 L31.7318945,32.3882807 L33.9985391,28.4293684 L33.9985391,7.35334503 L33.9985391,3.95997271 L33.9985391,1.68932943 C33.9986055,0.757146199 33.2411094,0.00112670565 32.3071055,0.00112670565 Z M29.46525,5.09118519 L32.86525,5.09118519 L32.86525,6.22233138 L29.46525,6.22233138 L29.46525,5.09118519 Z M31.16525,31.098269 L29.875043,28.8447914 L32.455457,28.8447914 L31.16525,31.098269 Z M32.86525,27.7137115 L29.46525,27.7137115 L29.46525,7.35347758 L32.86525,7.35347758 L32.86525,27.7137115 Z M29.46525,3.96010526 L29.46525,1.68932943 C29.46525,1.38180507 29.7153359,1.1322729 30.0233945,1.1322729 L32.3070391,1.1322729 C32.6151641,1.1322729 32.8651836,1.38187135 32.8651836,1.68932943 L32.8651836,3.96003899 L29.46525,3.96003899 L29.46525,3.96010526 Z" id="Shape"></path>
                    </g>
                </g>
            </g>
        </g>
    </g>
</svg>